{
  "source": "C:\\Users\\Peter\\Desktop\\stuff\\MIUN\\quantitative_research\\video_compression\\videos\\HEVC_CLASS_B\\ParkScene_1920x1080_24.y4m",
  "output": "C:\\Users\\Peter\\Desktop\\stuff\\MIUN\\quantitative_research\\video_compression\\compressed_videos\\HEVC_CLASS_B\\h264\\12\\ParkScene_1920x1080_24_h264.mp4",
  "codec": "h264",
  "ok": "Input #0, yuv4mpegpipe, from 'C:\\Users\\Peter\\Desktop\\stuff\\MIUN\\quantitative_research\\video_compression\\videos\\HEVC_CLASS_B\\ParkScene_1920x1080_24.y4m':\n  Duration: 00:00:10.00, start: 0.000000, bitrate: 597198 kb/s\n  Stream #0:0: Video: rawvideo (I420 / 0x30323449), yuv420p(progressive), 1920x1080, 24 fps, 24 tbr, 24 tbn\n[out#0/mp4 @ 000001d8096ea8c0] Codec AVOption b:a (set bitrate (in bits/s)) has not been used for any stream. The most likely reason is either wrong type (e.g. a video option with no video streams) or that it is a private option of some decoder which was not actually used for any stream.\nStream mapping:\n  Stream #0:0 -> #0:0 (rawvideo (native) -> h264 (libx264))\nPress [q] to stop, [?] for help\n[libx264 @ 000001d8096ecd40] using cpu capabilities: MMX2 SSE2Fast SSSE3 SSE4.2 AVX FMA3 BMI2 AVX2\n[libx264 @ 000001d8096ecd40] profile High, level 5.0, 4:2:0, 8-bit\n[libx264 @ 000001d8096ecd40] 264 - core 165 r3222 b35605a - H.264/MPEG-4 AVC codec - Copyleft 2003-2025 - http://www.videolan.org/x264.html - options: cabac=1 ref=5 deblock=1:0:0 analyse=0x3:0x113 me=hex subme=8 psy=1 psy_rd=1.00:0.00 mixed_ref=1 me_range=16 chroma_me=1 trellis=2 8x8dct=1 cqm=0 deadzone=21,11 fast_pskip=1 chroma_qp_offset=-2 threads=18 lookahead_threads=3 sliced_threads=0 nr=0 decimate=1 interlaced=0 bluray_compat=0 constrained_intra=0 bframes=3 b_pyramid=2 b_adapt=1 b_bias=0 direct=3 weightb=1 open_gop=0 weightp=2 keyint=250 keyint_min=24 scenecut=40 intra_refresh=0 rc_lookahead=50 rc=cbr mbtree=1 bitrate=12000 ratetol=1.0 qcomp=0.60 qpmin=0 qpmax=69 qpstep=4 vbv_maxrate=12000 vbv_bufsize=12000 nal_hrd=none filler=0 ip_ratio=1.40 aq=1:1.00\nOutput #0, mp4, to 'C:\\Users\\Peter\\Desktop\\stuff\\MIUN\\quantitative_research\\video_compression\\compressed_videos\\HEVC_CLASS_B\\h264\\12\\ParkScene_1920x1080_24_h264.mp4':\n  Metadata:\n    encoder         : Lavf62.3.100\n  Stream #0:0: Video: h264 (avc1 / 0x31637661), yuv420p(tv, progressive), 1920x1080, q=2-31, 12000 kb/s, 24 fps, 12288 tbn\n    Metadata:\n      encoder         : Lavc62.11.100 libx264\n    Side data:\n      cpb: bitrate max/min/avg: 12000000/0/12000000 buffer size: 12000000 vbv_delay: N/A\nframe=    0 fps=0.0 q=0.0 size=       0KiB time=N/A bitrate=N/A speed=N/A elapsed=0:00:00.51    \nframe=    0 fps=0.0 q=0.0 size=       0KiB time=N/A bitrate=N/A speed=N/A elapsed=0:00:01.14    \nframe=    0 fps=0.0 q=0.0 size=       0KiB time=N/A bitrate=N/A speed=N/A elapsed=0:00:01.78    \nframe=    0 fps=0.0 q=0.0 size=       0KiB time=N/A bitrate=N/A speed=N/A elapsed=0:00:02.33    \nframe=    0 fps=0.0 q=0.0 size=       0KiB time=N/A bitrate=N/A speed=N/A elapsed=0:00:02.91    \nframe=    0 fps=0.0 q=0.0 size=       0KiB time=N/A bitrate=N/A speed=N/A elapsed=0:00:03.57    \nframe=    9 fps=2.1 q=25.0 size=     768KiB time=00:00:00.12 bitrate=50334.7kbits/s speed=0.0298x elapsed=0:00:04.20    \nframe=   18 fps=3.8 q=25.0 size=    1024KiB time=00:00:00.66 bitrate=12583.5kbits/s speed=0.139x elapsed=0:00:04.79    \nframe=   21 fps=3.9 q=24.0 size=    1024KiB time=00:00:00.79 bitrate=10596.6kbits/s speed=0.147x elapsed=0:00:05.37    \nframe=   33 fps=5.5 q=24.0 size=    1536KiB time=00:00:01.12 bitrate=11185.2kbits/s speed=0.189x elapsed=0:00:05.95    \nframe=   37 fps=5.6 q=25.0 size=    1792KiB time=00:00:01.45 bitrate=10066.6kbits/s speed=0.222x elapsed=0:00:06.56    \nframe=   41 fps=5.7 q=25.0 size=    1792KiB time=00:00:01.45 bitrate=10066.6kbits/s speed=0.203x elapsed=0:00:07.17    \nframe=   49 fps=6.2 q=25.0 size=    2304KiB time=00:00:01.79 bitrate=10534.7kbits/s speed=0.228x elapsed=0:00:07.84    \nframe=   53 fps=6.2 q=25.0 size=    2560KiB time=00:00:02.12 bitrate=9869.1kbits/s speed=0.248x elapsed=0:00:08.56    \nframe=   61 fps=6.6 q=25.0 size=    2816KiB time=00:00:02.45 bitrate=9384.0kbits/s speed=0.266x elapsed=0:00:09.25    \nframe=   65 fps=6.5 q=24.0 size=    3072KiB time=00:00:02.62 bitrate=9587.1kbits/s speed=0.264x elapsed=0:00:09.93    \nframe=   69 fps=6.5 q=24.0 size=    3328KiB time=00:00:02.79 bitrate=9766.0kbits/s speed=0.264x elapsed=0:00:10.57    \nframe=   81 fps=7.2 q=24.0 size=    3840KiB time=00:00:03.29 bitrate=9556.8kbits/s speed=0.294x elapsed=0:00:11.18    \nframe=   85 fps=7.2 q=24.0 size=    4096KiB time=00:00:03.33 bitrate=10066.4kbits/s speed=0.282x elapsed=0:00:11.80    \nframe=   89 fps=7.1 q=24.0 size=    4352KiB time=00:00:03.45 bitrate=10309.0kbits/s speed=0.278x elapsed=0:00:12.45    \nframe=   97 fps=7.4 q=24.0 size=    4608KiB time=00:00:03.79 bitrate=9955.8kbits/s speed=0.29x elapsed=0:00:13.06    \nframe=  105 fps=7.6 q=24.0 size=    4864KiB time=00:00:04.29 bitrate=9284.6kbits/s speed=0.312x elapsed=0:00:13.73    \nframe=  109 fps=7.6 q=24.0 size=    5120KiB time=00:00:04.45 bitrate=9407.9kbits/s speed=0.312x elapsed=0:00:14.31    \nframe=  121 fps=8.1 q=24.0 size=    5632KiB time=00:00:04.95 bitrate=9305.1kbits/s speed=0.333x elapsed=0:00:14.89    \nframe=  125 fps=8.1 q=24.0 size=    5888KiB time=00:00:05.12 bitrate=9411.7kbits/s speed=0.332x elapsed=0:00:15.42    \nframe=  138 fps=8.6 q=24.0 size=    6400KiB time=00:00:05.45 bitrate=9605.3kbits/s speed=0.341x elapsed=0:00:16.02    \nframe=  145 fps=8.7 q=24.0 size=    6656KiB time=00:00:05.95 bitrate=9151.3kbits/s speed=0.358x elapsed=0:00:16.62    \nframe=  149 fps=8.6 q=24.0 size=    6912KiB time=00:00:06.00 bitrate=9437.2kbits/s speed=0.348x elapsed=0:00:17.24    \nframe=  157 fps=8.8 q=24.0 size=    7424KiB time=00:00:06.29 bitrate=9666.4kbits/s speed=0.352x elapsed=0:00:17.88    \nframe=  169 fps=9.1 q=24.0 size=    7936KiB time=00:00:06.95 bitrate=9343.1kbits/s speed=0.375x elapsed=0:00:18.54    \nframe=  173 fps=9.0 q=24.0 size=    8192KiB time=00:00:07.12 bitrate=9418.8kbits/s speed=0.371x elapsed=0:00:19.19    \nframe=  177 fps=9.0 q=24.0 size=    8192KiB time=00:00:07.25 bitrate=9256.4kbits/s speed=0.367x elapsed=0:00:19.76    \nframe=  193 fps=9.5 q=24.0 size=    9216KiB time=00:00:07.95 bitrate=9486.6kbits/s speed=0.391x elapsed=0:00:20.35    \nframe=  193 fps=9.2 q=24.0 size=    9216KiB time=00:00:07.95 bitrate=9486.6kbits/s speed=0.38x elapsed=0:00:20.93    \nframe=  205 fps=9.5 q=23.0 size=    9728KiB time=00:00:08.29 bitrate=9611.1kbits/s speed=0.386x elapsed=0:00:21.49    \nframe=  209 fps=9.4 q=23.0 size=    9984KiB time=00:00:08.62 bitrate=9482.8kbits/s speed=0.389x elapsed=0:00:22.17    \nframe=  213 fps=9.3 q=21.0 size=   10240KiB time=00:00:08.79 bitrate=9541.6kbits/s speed=0.386x elapsed=0:00:22.78    \nframe=  225 fps=9.6 q=-1.0 size=   10752KiB time=00:00:09.29 bitrate=9479.5kbits/s speed=0.398x elapsed=0:00:23.32    \nframe=  233 fps=9.8 q=-1.0 size=   11264KiB time=00:00:09.62 bitrate=9587.0kbits/s speed=0.403x elapsed=0:00:23.88    \n[mp4 @ 000001d8096eba00] Starting second pass: moving the moov atom to the beginning of the file\n[out#0/mp4 @ 000001d8096ea8c0] video:11572KiB audio:0KiB subtitle:0KiB other streams:0KiB global headers:0KiB muxing overhead: 0.032777%\nframe=  240 fps=9.9 q=-1.0 Lsize=   11576KiB time=00:00:09.91 bitrate=9562.5kbits/s speed=0.409x elapsed=0:00:24.24    \n[libx264 @ 000001d8096ecd40] frame I:1     Avg QP:18.79  size:494169\n[libx264 @ 000001d8096ecd40] frame P:60    Avg QP:21.96  size:136250\n[libx264 @ 000001d8096ecd40] frame B:179   Avg QP:26.53  size: 17763\n[libx264 @ 000001d8096ecd40] consecutive B-frames:  0.4%  0.0%  1.2% 98.3%\n[libx264 @ 000001d8096ecd40] mb I  I16..4:  1.3% 81.5% 17.3%\n[libx264 @ 000001d8096ecd40] mb P  I16..4:  0.0%  2.3%  0.6%  P16..4: 41.6% 30.9% 20.4%  0.0%  0.0%    skip: 4.1%\n[libx264 @ 000001d8096ecd40] mb B  I16..4:  0.0%  0.1%  0.0%  B16..8: 48.8%  6.1%  2.0%  direct: 3.6%  skip:39.3%  L0:40.2% L1:47.8% BI:12.0%\n[libx264 @ 000001d8096ecd40] 8x8 transform intra:79.8% inter:50.9%\n[libx264 @ 000001d8096ecd40] direct mvs  spatial:94.4% temporal:5.6%\n[libx264 @ 000001d8096ecd40] coded y,uvDC,uvAC intra: 96.3% 95.7% 82.3% inter: 22.0% 23.9% 8.3%\n[libx264 @ 000001d8096ecd40] i16 v,h,dc,p: 47%  9%  9% 35%\n[libx264 @ 000001d8096ecd40] i8 v,h,dc,ddl,ddr,vr,hd,vl,hu: 15% 11%  6%  9% 12% 13% 11% 12% 11%\n[libx264 @ 000001d8096ecd40] i4 v,h,dc,ddl,ddr,vr,hd,vl,hu: 13%  9%  4%  9% 13% 14% 13% 12% 13%\n[libx264 @ 000001d8096ecd40] i8c dc,h,v,p: 50% 16% 19% 15%\n[libx264 @ 000001d8096ecd40] Weighted P-Frames: Y:0.0% UV:0.0%\n[libx264 @ 000001d8096ecd40] ref P L0: 60.3% 14.5% 14.3%  6.6%  4.3%\n[libx264 @ 000001d8096ecd40] ref B L0: 88.5%  8.4%  2.7%  0.5%\n[libx264 @ 000001d8096ecd40] ref B L1: 95.4%  4.6%\n[libx264 @ 000001d8096ecd40] kb/s:9479.08\n",
  "seconds": 24.730564832687378,
  "probe_out": {}
}